<?xml version="1.0" encoding="UTF-8"?>
<svg width="513px" height="512px" viewBox="0 0 513 512" version="1.1" xmlns="http://www.w3.org/2000/svg" xmlns:xlink="http://www.w3.org/1999/xlink">
    <title>Shape</title>
    <g id="Page-1" stroke="none" stroke-width="1" fill="none" fill-rule="evenodd">
        <g id="home-run" fill="#B0B3B8" fill-rule="nonzero">
            <path d="M498.660156,222.65625 L289.804688,13.808594 C280.902344,4.902344 269.066406,0 256.476562,0 C243.886719,0 232.050781,4.902344 223.144531,13.808594 L14.398438,222.550781 C14.328125,222.621094 14.253906,222.695312 14.1875,222.765625 C-4.09375,241.152344 -4.0625,270.984375 14.277344,289.324219 C22.65625,297.707031 33.71875,302.558594 45.550781,303.070312 C46.035156,303.117188 46.519531,303.140625 47.007812,303.140625 L55.328125,303.140625 L55.328125,456.835938 C55.328125,487.253906 80.078125,512 110.496094,512 L192.207031,512 C200.492188,512 207.207031,505.28125 207.207031,497 L207.207031,376.5 C207.207031,362.621094 218.5,351.332031 232.378906,351.332031 L280.574219,351.332031 C294.453125,351.332031 305.742188,362.621094 305.742188,376.5 L305.742188,497 C305.742188,505.28125 312.457031,512 320.742188,512 L402.453125,512 C432.875,512 457.621094,487.253906 457.621094,456.835938 L457.621094,303.140625 L465.339844,303.140625 C477.925781,303.140625 489.761719,298.238281 498.671875,289.328125 C517.03125,270.960938 517.039062,241.074219 498.699219,222.695312 C498.683594,222.683594 498.671875,222.667969 498.660156,222.65625 Z M477.457031,268.117188 C474.21875,271.355469 469.914062,273.140625 465.339844,273.140625 L442.621094,273.140625 C434.335938,273.140625 427.621094,279.855469 427.621094,288.140625 L427.621094,456.835938 C427.621094,470.710938 416.332031,482 402.453125,482 L335.742188,482 L335.742188,376.5 C335.742188,346.082031 310.996094,321.332031 280.574219,321.332031 L232.378906,321.332031 C201.957031,321.332031 177.207031,346.082031 177.207031,376.5 L177.207031,482 L110.496094,482 C96.621094,482 85.328125,470.710938 85.328125,456.835938 L85.328125,288.140625 C85.328125,279.855469 78.613281,273.140625 70.328125,273.140625 L48,273.140625 C47.765625,273.125 47.535156,273.113281 47.296875,273.109375 C42.828125,273.03125 38.636719,271.257812 35.496094,268.113281 C28.816406,261.433594 28.816406,250.5625 35.496094,243.878906 C35.5,243.878906 35.5,243.875 35.503906,243.871094 L35.515625,243.859375 L244.363281,35.019531 C247.597656,31.78125 251.898438,30 256.476562,30 C261.050781,30 265.351562,31.78125 268.589844,35.019531 L477.390625,243.816406 C477.421875,243.847656 477.457031,243.878906 477.488281,243.910156 C486.046766,252.468641 486.015516,259.558703 477.457031,268.117188 Z" id="Shape"></path>
        </g>
    </g>
</svg>