<?xml version="1.0" encoding="UTF-8"?>
<svg width="513px" height="388px" viewBox="0 0 513 388" version="1.1" xmlns="http://www.w3.org/2000/svg" xmlns:xlink="http://www.w3.org/1999/xlink">
    <title>Path</title>
    <g id="Page-2" stroke="none" stroke-width="1" fill="none" fill-rule="evenodd">
        <g id="youtube" fill="#B0B3B8" fill-rule="nonzero">
            <path d="M334.808594,170.992188 L221.695312,109.101562 C215.191406,105.542969 207.503906,105.675781 201.128906,109.453125 C194.75,113.234375 190.945312,119.914062 190.945312,127.328125 L190.945312,250.046875 C190.945312,257.425781 194.726562,264.09375 201.0625,267.878906 C204.371094,269.855469 208.039062,270.847656 211.714844,270.847656 C215.082031,270.847656 218.457031,270.015625 221.5625,268.34375 L334.679688,207.519531 C341.394531,203.90625 345.585938,196.925781 345.617323,189.296875 C345.644531,181.667969 341.503906,174.65625 334.808594,170.992188 L334.808594,170.992188 Z M220.949219,234.609375 L220.949219,142.890625 L305.488281,189.148438 L220.949219,234.609375 Z" id="Shape"></path>
            <path d="M508.234375,91.527344 L508.210938,91.292969 C507.777344,87.171875 503.460938,50.515625 485.640625,31.871094 C465.042969,9.941406 441.691406,7.277344 430.460938,6 C429.53125,5.894531 428.679688,5.796875 427.917969,5.695312 L427.023438,5.601562 C359.335938,0.679688 257.113281,0.0078125 256.089844,0.00390625 L256,0 L255.910156,0.00390625 C254.886719,0.0078125 152.664062,0.679688 84.367188,5.601562 L83.464844,5.695312 C82.738281,5.792969 81.9375,5.882812 81.066406,5.984375 C69.964844,7.265625 46.863281,9.933594 26.207031,32.65625 C9.234375,51.101562 4.328125,86.972656 3.824219,91.003906 L3.765625,91.527344 C3.613281,93.242188 -5.68434189e-14,134.066406 -5.68434189e-14,175.050781 L-5.68434189e-14,213.363281 C-5.68434189e-14,254.347656 3.613281,295.171875 3.765625,296.890625 L3.792969,297.148438 C4.226562,301.203125 8.539062,337.1875 26.277344,355.839844 C45.644531,377.035156 70.132812,379.839844 83.304688,381.347656 C85.386719,381.585938 87.179688,381.789062 88.402344,382.003906 L89.585938,382.167969 C128.667969,385.886719 251.203125,387.71875 256.398438,387.792969 L256.554688,387.796875 L256.710938,387.792969 C257.734375,387.789062 359.953125,387.117188 427.640625,382.195312 L428.535156,382.101562 C429.390625,381.988281 430.351562,381.886719 431.40625,381.777344 C442.445312,380.605469 465.421875,378.171875 485.792969,355.757812 C502.765625,337.308594 507.675781,301.4375 508.175781,297.410156 L508.234375,296.886719 C508.386719,295.167969 512.003906,254.347656 512.003906,213.363281 L512.003906,175.050781 C512.003906,134.066406 508.386719,93.246094 508.234375,91.527344 L508.234375,91.527344 Z M481.996094,213.363281 C481.996094,251.296875 478.683594,290.363281 478.371094,293.949219 C477.097656,303.828125 471.921875,326.523438 463.652344,335.511719 C450.902344,349.539062 437.804688,350.929688 428.242188,351.941406 C427.085938,352.0625 426.015625,352.179688 425.046875,352.300781 C359.578125,357.035156 261.214844,357.761719 256.683594,357.789062 C251.601562,357.714844 130.859375,355.867188 92.96875,352.347656 C91.027344,352.03125 88.929688,351.789062 86.71875,351.539062 C75.503906,350.253906 60.152344,348.496094 48.347656,335.511719 L48.070312,335.214844 C39.945312,326.75 34.917969,305.527344 33.640625,294.066406 C33.402344,291.355469 30.003906,251.828125 30.003906,213.363281 L30.003906,175.050781 C30.003906,137.160156 33.308594,98.136719 33.628906,94.476562 C35.148438,82.839844 40.421875,61.519531 48.347656,52.902344 C61.488281,38.449219 75.34375,36.847656 84.507812,35.789062 C85.382812,35.6875 86.199219,35.59375 86.953125,35.496094 C153.375,30.738281 252.445312,30.03125 256,30.003906 C259.554688,30.027344 358.589844,30.738281 424.421875,35.496094 C425.230469,35.597656 426.113281,35.699219 427.0625,35.808594 C436.488281,36.882812 450.734375,38.507812 463.808594,52.453125 L463.929688,52.582031 C472.054688,61.046875 477.082031,82.640625 478.359375,94.332031 C478.585938,96.890625 481.996094,136.503906 481.996094,175.050781 L481.996094,213.363281 Z" id="Shape"></path>
        </g>
    </g>
</svg>