<?xml version="1.0" encoding="UTF-8"?>
<svg width="478px" height="478px" viewBox="0 0 478 478" version="1.1" xmlns="http://www.w3.org/2000/svg" xmlns:xlink="http://www.w3.org/1999/xlink">
    <title>Shape</title>
    <g id="Page-3" stroke="none" stroke-width="1" fill="none" fill-rule="evenodd">
        <g id="shop" fill="#B0B3B8" fill-rule="nonzero">
            <path d="M476.996,114.074 L442.863,11.674 C440.541,4.701 434.016,-6.37642927e-07 426.667,-6.37642927e-07 L51.2,-6.37642927e-07 C43.851,-6.37642927e-07 37.326,4.701 35.004,11.674 L0.87,114.074 C0.344,115.668 0.05,117.329 0,119.006 C0,119.177 0,119.296 0,119.467 L0,136.534 C0.062,163.274 12.707,188.426 34.133,204.425 C34.133,204.562 34.133,204.664 34.133,204.8 L34.133,426.667 C34.133,454.944 57.056,477.867 85.333,477.867 L392.533,477.867 C420.81,477.867 443.733,454.944 443.733,426.667 L443.733,204.8 C443.733,204.663 443.733,204.561 443.733,204.425 C465.159,188.426 477.805,163.274 477.866,136.534 L477.866,119.467 C477.866,119.296 477.866,119.177 477.866,119.006 C477.816,117.328 477.523,115.667 476.996,114.074 Z M358.4,34.133 L414.362,34.133 L437.129,102.4 L358.4,102.4 L358.4,34.133 Z M256,34.133 L324.267,34.133 L324.267,102.4 L256,102.4 L256,34.133 Z M153.6,34.133 L221.867,34.133 L221.867,102.4 L153.6,102.4 L153.6,34.133 Z M63.505,34.133 L119.467,34.133 L119.467,102.4 L40.738,102.4 L63.505,34.133 Z M273.067,443.733 L204.8,443.733 L204.8,307.2 L273.067,307.2 L273.067,443.733 Z M409.6,426.667 C409.6,436.093 401.959,443.734 392.533,443.734 L307.2,443.734 L307.2,290.134 C307.2,280.708 299.559,273.067 290.133,273.067 L187.733,273.067 C178.307,273.067 170.666,280.708 170.666,290.134 L170.666,443.734 L85.333,443.734 C75.907,443.734 68.266,436.093 68.266,426.667 L68.266,220.16 C92.217,225.077 117.123,219.361 136.533,204.493 C166.999,226.869 208.467,226.869 238.933,204.493 C269.399,226.869 310.867,226.869 341.333,204.493 C360.743,219.362 385.649,225.077 409.6,220.16 L409.6,426.667 L409.6,426.667 Z M392.533,187.733 C377.774,187.724 363.759,181.25 354.184,170.018 C347.982,162.921 337.2,162.195 330.103,168.397 C329.527,168.9 328.985,169.442 328.482,170.018 C309.505,191.198 276.953,192.983 255.773,174.007 C254.372,172.751 253.04,171.42 251.784,170.018 C245.105,162.921 233.937,162.581 226.839,169.261 C226.579,169.506 226.326,169.758 226.082,170.018 C207.106,191.198 174.553,192.983 153.373,174.007 C151.971,172.751 150.64,171.42 149.384,170.018 C142.705,162.921 131.536,162.581 124.439,169.261 C124.179,169.506 123.926,169.758 123.682,170.018 C114.107,181.25 100.093,187.724 85.333,187.733 C57.056,187.733 34.133,164.81 34.133,136.533 L443.733,136.533 C443.733,164.81 420.81,187.733 392.533,187.733 Z" id="Shape"></path>
        </g>
    </g>
</svg>